<svg width="39" height="52" viewBox="0 0 39 52" fill="none" xmlns="http://www.w3.org/2000/svg">
<circle cx="14" cy="14" r="14" fill="#C1FFFA" fill-opacity="0.1"/>
<path d="M38.6731 50.1115C36.8845 46.3646 35.0829 42.6177 33.2813 38.8578C33.0854 38.453 32.7852 38.2703 32.3282 38.2703C31.2446 38.2833 30.148 38.2703 29.0644 38.2703C28.9469 38.2703 28.8163 38.2572 28.6205 38.2442C29.0122 37.7481 29.3646 37.2911 29.7171 36.8472C31.4274 34.667 33.1899 32.5259 34.626 30.1368C35.9446 27.9304 36.9107 25.5805 37.0673 22.9824C37.5112 15.9325 32.746 9.52235 25.8658 7.89043C25.0955 7.70765 24.2992 7.60321 23.5158 7.47266C22.7717 7.47266 22.0275 7.47266 21.2834 7.47266C21.205 7.49877 21.1267 7.53793 21.0484 7.53793C17.3407 7.90348 14.1682 9.41791 11.6485 12.1726C8.38467 15.7236 7.10525 19.9144 7.9669 24.6927C8.39773 27.0949 9.46827 29.2621 10.8652 31.2334C12.471 33.4789 14.1813 35.6461 15.8393 37.8525C15.9307 37.983 16.0221 38.1136 16.1657 38.2964C14.8862 38.2964 13.7243 38.3094 12.5493 38.2833C12.001 38.2703 11.6877 38.4922 11.4527 38.9753C9.70327 42.6569 7.92774 46.3254 6.17832 49.994C5.74749 50.8817 6.11304 51.4431 7.10525 51.4431C10.1471 51.4431 13.2021 51.4431 16.244 51.4431C16.9751 51.4431 17.7062 51.4431 18.4373 51.4431C18.8551 51.4431 19.1554 51.2734 19.312 50.8817C19.547 50.2681 19.1031 49.7329 18.359 49.7329C15.1474 49.7329 11.9488 49.7329 8.73717 49.7329C8.5805 49.7329 8.42384 49.7329 8.24106 49.7329C8.28023 49.6154 8.30634 49.537 8.34551 49.4587C9.80771 46.4038 11.283 43.3488 12.7321 40.2938C12.8496 40.0588 12.9802 39.9936 13.2282 39.9936C14.5599 40.0066 15.8915 40.0066 17.2232 39.9936C17.4843 39.9936 17.6409 40.085 17.7976 40.2808C18.5287 41.2208 19.2598 42.1477 20.004 43.0746C20.2259 43.3488 20.4348 43.636 20.7089 43.9755C20.4739 43.9755 20.3434 43.9755 20.1998 43.9755C19.6384 43.9755 19.077 43.9624 18.5287 43.9885C17.9934 44.0146 17.6409 44.3802 17.6409 44.8502C17.6409 45.3463 18.0195 45.6988 18.5809 45.6988C21.1528 45.6988 23.7378 45.6988 26.3097 45.6988C26.8319 45.6988 27.2105 45.3332 27.2105 44.8632C27.2105 44.4063 26.8711 44.0277 26.375 44.0016C25.7744 43.9755 25.1739 43.9885 24.5733 43.9885C24.4558 43.9885 24.3383 43.9624 24.1686 43.9493C25.2 42.6438 26.1791 41.3905 27.1713 40.1633C27.2627 40.0588 27.4716 40.0066 27.6152 40.0066C28.9338 39.9936 30.2524 40.0066 31.558 39.9936C31.8582 39.9936 32.0018 40.098 32.1324 40.3591C33.5554 43.3357 34.9785 46.3124 36.4145 49.289C36.4798 49.4195 36.519 49.5501 36.5973 49.7198C36.4015 49.7198 36.2448 49.7198 36.0882 49.7198C32.8635 49.7198 29.6519 49.7198 26.4272 49.7198C25.8528 49.7198 25.448 50.0723 25.448 50.5684C25.448 51.0645 25.8397 51.4301 26.4272 51.4301C30.2524 51.4301 34.0646 51.4301 37.8898 51.4301C38.634 51.4301 39.0126 50.8295 38.6731 50.1115ZM22.6672 43.0224C22.5889 43.1269 22.4975 43.2052 22.38 43.3488C20.8917 41.4688 19.4426 39.6541 18.0195 37.8133C16.0873 35.3067 14.129 32.8001 12.2621 30.2282C10.9435 28.4135 9.96437 26.3899 9.61188 24.1444C8.91994 19.7839 10.1602 15.9717 13.3196 12.9298C17.0012 9.37874 21.44 8.28209 26.3097 9.82262C31.1532 11.3501 34.1037 14.7706 35.1612 19.7447C35.8009 22.7735 35.1351 25.6196 33.699 28.309C32.5371 30.4762 31.0488 32.4084 29.5344 34.3406C27.2366 37.2389 24.9519 40.1372 22.6672 43.0224Z" fill="url(#paint0_linear_256_2)"/>
<path d="M22.4345 49.7327C21.9515 49.7197 21.5468 50.1113 21.5468 50.5944C21.5468 51.0513 21.9515 51.443 22.3954 51.443C22.8523 51.443 23.244 51.0644 23.244 50.6075C23.2701 50.1244 22.9045 49.7458 22.4345 49.7327Z" fill="url(#paint1_linear_256_2)"/>
<path d="M22.4056 13.3094C17.536 13.3094 13.5672 17.2391 13.5541 22.0827C13.5411 26.9523 17.4968 30.9211 22.3926 30.9211C27.2622 30.9211 31.2311 26.9915 31.2441 22.1479C31.2441 17.2783 27.2884 13.3094 22.4056 13.3094ZM22.3926 29.2109C18.4499 29.2109 15.2513 26.0254 15.2513 22.1088C15.2513 18.2052 18.4499 15.0328 22.3665 15.0328C26.3092 15.0328 29.5078 18.2052 29.5078 22.1349C29.5078 26.0384 26.3223 29.2109 22.3926 29.2109Z" fill="url(#paint2_linear_256_2)"/>
<defs>
<linearGradient id="paint0_linear_256_2" x1="17.703" y1="30.4359" x2="47.5553" y2="30.4359" gradientUnits="userSpaceOnUse">
<stop stop-color="#27BBAE"/>
<stop offset="1" stop-color="#7EBE42"/>
</linearGradient>
<linearGradient id="paint1_linear_256_2" x1="22.1528" y1="50.6258" x2="23.6987" y2="50.6258" gradientUnits="userSpaceOnUse">
<stop stop-color="#27BBAE"/>
<stop offset="1" stop-color="#7EBE42"/>
</linearGradient>
<linearGradient id="paint2_linear_256_2" x1="19.8661" y1="22.507" x2="35.9671" y2="22.507" gradientUnits="userSpaceOnUse">
<stop stop-color="#27BBAE"/>
<stop offset="1" stop-color="#7EBE42"/>
</linearGradient>
</defs>
</svg>
