<svg width="45" height="52" viewBox="0 0 45 52" fill="none" xmlns="http://www.w3.org/2000/svg">
<path d="M43.6817 24.3799C42.934 23.6715 42.1994 22.9501 41.478 22.2025C41.3337 22.0582 41.255 21.8089 41.2288 21.5991C41.1894 21.2318 41.2288 20.8383 41.2157 20.471C41.2026 20.0906 40.9796 19.8808 40.6123 19.8545C40.2319 19.8283 40.0089 20.0513 39.9433 20.4054C39.9171 20.5497 39.9302 20.694 39.9302 20.8383C39.9302 22.8976 39.9302 24.957 39.9302 27.0295C39.9302 27.3312 39.8515 27.541 39.6417 27.7509C37.543 29.8365 35.4443 31.9352 33.3456 34.0208C31.6797 35.6866 30.0139 37.3393 28.3611 39.0183C28.1382 39.2413 27.9808 39.2806 27.7053 39.1101C27.1806 38.7953 26.6428 38.5067 26.105 38.2313C25.2524 37.8115 24.3998 37.8246 23.5604 38.2575C23.0357 38.533 22.511 38.8084 21.9995 39.1232C21.7502 39.2806 21.5928 39.2544 21.3699 39.0314C17.6053 35.2537 13.8277 31.4892 10.05 27.7378C9.85324 27.541 9.76142 27.3312 9.76142 27.0557C9.77454 23.5273 9.76142 19.9988 9.76142 16.4704C9.76142 15.198 10.2992 14.6603 11.5978 14.6603C16.9757 14.6603 22.3405 14.6603 27.7184 14.6603C31.2469 14.6603 34.7753 14.6603 38.3037 14.6603C39.3268 14.6603 39.9302 15.2636 39.9302 16.2867C39.9302 16.7458 39.9171 17.218 39.9302 17.6771C39.9433 18.11 40.2319 18.3854 40.6123 18.3723C40.9796 18.3592 41.2157 18.0969 41.2288 17.6771C41.2419 17.2443 41.2288 16.8114 41.2288 16.3654C41.2157 14.516 40.0614 13.3617 38.1988 13.3486C36.4149 13.3486 34.631 13.3617 32.834 13.3354C32.611 13.3354 32.3224 13.2174 32.165 13.06C30.591 11.5516 29.0432 10.03 27.4954 8.48221C26.8658 7.8526 26.2362 7.24922 25.3574 7C25.0032 7 24.6622 7 24.308 7C23.4423 7.24922 22.8127 7.83948 22.1962 8.45597C20.6615 9.99065 19.1006 11.486 17.5791 13.0075C17.3299 13.2567 17.0938 13.3486 16.7396 13.3486C14.9819 13.3354 13.2243 13.3354 11.4666 13.3354C9.61714 13.3354 8.44974 14.5028 8.43662 16.3523C8.43662 18.0969 8.44974 19.8414 8.4235 21.586C8.4235 21.7958 8.30545 22.0582 8.16117 22.2156C7.47909 22.9239 6.77078 23.6191 6.04935 24.3012C5.32792 24.9832 5 25.7834 5 26.7802C5.03935 29.0626 5.02623 31.3449 5.02623 33.6272C5.02623 34.3224 5.20987 34.611 5.65584 34.6241C6.11493 34.6372 6.33792 34.3224 6.33792 33.6141C6.33792 31.3318 6.33792 29.0495 6.33792 26.7671C6.33792 26.531 6.37727 26.308 6.4035 26.0457C11.0731 30.7415 15.6902 35.3849 20.3074 40.0283C15.7034 42.5598 11.06 45.1176 6.3248 47.7148C6.3248 47.4655 6.3248 47.295 6.3248 47.1245C6.3248 43.8191 6.3248 40.5005 6.3248 37.195C6.3248 37.0114 6.3248 36.8146 6.27234 36.631C6.18052 36.3162 5.94441 36.1719 5.60338 36.1982C5.28857 36.2244 5.09182 36.3949 5.03935 36.7097C5.01312 36.8409 5.02623 36.9852 5.02623 37.1295C5.02623 40.9465 5.02623 44.7635 5.02623 48.5936C5.02623 50.4824 6.18052 51.6236 8.06935 51.6236C15.9132 51.6236 23.7571 51.6236 31.601 51.6236C32.2831 51.6236 32.5848 51.4268 32.5979 50.9809C32.611 50.5218 32.2962 50.3119 31.5879 50.3119C23.8096 50.3119 16.0182 50.3119 8.23987 50.3119C8.06935 50.3119 7.88571 50.325 7.71519 50.2988C7.04623 50.2463 6.53467 49.8004 6.42974 49.1576C6.56091 49.0789 6.70519 49.0002 6.83636 48.9215C12.4766 45.8259 18.13 42.7304 23.7571 39.6085C24.5179 39.1888 25.1606 39.1888 25.9214 39.6085C31.483 42.691 37.0445 45.7341 42.6192 48.8035C42.8422 48.9215 43.0652 49.0527 43.2881 49.1839C43.0389 49.9578 42.5405 50.3119 41.7535 50.3119C39.5498 50.3119 37.3331 50.3119 35.1294 50.3119C34.9852 50.3119 34.8278 50.2988 34.6966 50.325C34.3818 50.4037 34.185 50.6005 34.1719 50.9284C34.1588 51.2826 34.3556 51.5055 34.6835 51.5842C34.8015 51.6105 34.9458 51.6105 35.077 51.6105C37.2806 51.6105 39.4974 51.6105 41.701 51.6105C43.4718 51.6105 44.6654 50.4431 44.6654 48.6723C44.6785 41.34 44.6654 34.0076 44.6785 26.6622C44.6523 25.7702 44.3375 25.0095 43.6817 24.3799ZM22.3011 10.2005C22.7865 9.70208 23.2849 9.21675 23.7965 8.74454C24.3867 8.19364 25.2 8.12805 25.764 8.66584C27.3511 10.1743 28.8989 11.709 30.5385 13.3092C26.7084 13.3092 22.9701 13.3092 19.3367 13.3092C20.3074 12.2992 21.2912 11.2499 22.3011 10.2005ZM8.4235 26.0457C8.05623 25.6522 7.71519 25.298 7.40039 24.9439C7.68896 24.6553 8.03 24.288 8.4235 23.8945C8.4235 24.6291 8.4235 25.3243 8.4235 26.0457ZM41.255 24.0126C41.5567 24.3274 41.8978 24.6947 42.2126 25.0226C41.9502 25.298 41.6092 25.6653 41.255 26.0588C41.255 25.3374 41.255 24.6291 41.255 24.0126ZM43.275 47.6754C38.6185 45.1176 33.962 42.5598 29.3843 40.0414C34.0014 35.398 38.6054 30.7547 43.2226 26.1244C43.3537 26.3867 43.4324 46.9278 43.275 47.6754Z" fill="url(#paint0_linear_247_277)"/>
<path d="M14.5207 20.3264C14.6256 20.4182 14.8486 20.3919 15.0191 20.3919C21.5513 20.3919 28.0835 20.3919 34.6157 20.3919C34.7731 20.3919 34.9436 20.3919 35.0879 20.3526C35.4159 20.2608 35.5601 20.0247 35.547 19.6967C35.5339 19.3688 35.3372 19.159 35.0092 19.1065C34.8518 19.0803 34.6944 19.0934 34.537 19.0934C31.3103 19.0934 28.0966 19.0934 24.8699 19.0934C21.6169 19.0934 18.3639 19.0934 15.1109 19.0934C14.9404 19.0934 14.7568 19.0803 14.5863 19.1196C14.2846 19.1852 14.0616 19.3951 14.1009 19.6967C14.1665 19.9197 14.3502 20.1558 14.5207 20.3264Z" fill="url(#paint1_linear_247_277)"/>
<path d="M34.9884 24.0908C34.8441 24.0646 34.6998 24.0777 34.5555 24.0777C31.3288 24.0777 28.1151 24.0777 24.8884 24.0777C21.6354 24.0777 18.3824 24.0777 15.1294 24.0777C14.9983 24.0777 14.8671 24.0646 14.7359 24.0777C14.3555 24.1171 14.1063 24.3663 14.1063 24.7205C14.1063 25.0746 14.3555 25.3369 14.7359 25.3763C14.854 25.3894 14.972 25.3763 15.0901 25.3763C21.5961 25.3763 28.102 25.3763 34.608 25.3763C34.7392 25.3763 34.8703 25.3894 35.0015 25.3632C35.3688 25.3107 35.5786 25.1008 35.5786 24.7205C35.5655 24.3663 35.3425 24.1564 34.9884 24.0908Z" fill="url(#paint2_linear_247_277)"/>
<path d="M34.5489 29.0883C31.3091 29.0883 28.0692 29.0883 24.8425 29.0883C21.6157 29.0883 18.3627 29.0883 15.136 29.0883C14.9786 29.0883 14.8081 29.0883 14.6638 29.1145C14.3227 29.1801 14.126 29.3899 14.126 29.7441C14.126 30.0983 14.3096 30.3212 14.6638 30.3737C14.8212 30.3999 14.9786 30.3999 15.136 30.3999C21.6157 30.3999 28.0823 30.3999 34.5621 30.3999C34.7195 30.3999 34.8769 30.3999 35.0343 30.3737C35.3884 30.3212 35.5721 30.0983 35.5721 29.7441C35.5721 29.3899 35.3753 29.167 35.0343 29.1145C34.8637 29.0883 34.7063 29.0883 34.5489 29.0883Z" fill="url(#paint3_linear_247_277)"/>
<circle cx="14" cy="14" r="14" fill="#C1FFFA" fill-opacity="0.1"/>
<defs>
<linearGradient id="paint0_linear_247_277" x1="19.1579" y1="30.3044" x2="55.2721" y2="30.3044" gradientUnits="userSpaceOnUse">
<stop stop-color="#27BBAE"/>
<stop offset="1" stop-color="#7EBE42"/>
</linearGradient>
<linearGradient id="paint1_linear_247_277" x1="21.7506" y1="19.7718" x2="41.2751" y2="19.7718" gradientUnits="userSpaceOnUse">
<stop stop-color="#27BBAE"/>
<stop offset="1" stop-color="#7EBE42"/>
</linearGradient>
<linearGradient id="paint2_linear_247_277" x1="21.7679" y1="24.7562" x2="41.3114" y2="24.7562" gradientUnits="userSpaceOnUse">
<stop stop-color="#27BBAE"/>
<stop offset="1" stop-color="#7EBE42"/>
</linearGradient>
<linearGradient id="paint3_linear_247_277" x1="21.7782" y1="29.7733" x2="41.2979" y2="29.7733" gradientUnits="userSpaceOnUse">
<stop stop-color="#27BBAE"/>
<stop offset="1" stop-color="#7EBE42"/>
</linearGradient>
</defs>
</svg>
