<svg width="70" height="70" viewBox="0 0 70 70" fill="none" xmlns="http://www.w3.org/2000/svg">
<path d="M51.3256 40.5227C51.3256 34.8414 46.9557 30.2186 41.5856 30.2186C39.4985 30.2189 37.4719 30.9201 35.8311 32.2099C35.5849 32.4008 35.2823 32.5045 34.9708 32.5045C34.6593 32.5045 34.3567 32.4008 34.1106 32.2099C32.47 30.9196 30.4433 30.218 28.3561 30.2179C22.9845 30.2179 18.6146 34.8407 18.6146 40.5219C18.6069 41.9727 18.898 43.4095 19.4698 44.7429C20.0416 46.0762 20.8818 47.2776 21.938 48.2722C22.4516 48.7249 22.8631 49.2816 23.1453 49.9053C23.4274 50.5291 23.5738 51.2057 23.5747 51.8904C23.5747 52.0138 23.5702 52.138 23.5702 52.2644C23.5399 54.1828 23.9313 56.0845 24.7168 57.835C25.5023 59.5855 26.6627 61.1421 28.1159 62.3949C28.4845 62.7013 28.9332 62.8956 29.4089 62.9548C29.8845 63.014 30.3672 62.9356 30.7996 62.7289C31.2321 62.5222 31.5962 62.1958 31.8488 61.7884C32.1014 61.3811 32.2319 60.9098 32.2248 60.4305V59.9757C32.2248 53.5914 34.1764 50.1467 34.9738 50.1467C35.7712 50.1467 37.7235 53.5876 37.7235 59.9757V60.4246C37.7131 60.9059 37.8428 61.3798 38.0968 61.7887C38.3509 62.1977 38.7184 62.5239 39.1545 62.7277C39.4932 62.8907 39.8641 62.9758 40.2399 62.9768C40.8233 62.9753 41.3874 62.7682 41.8332 62.3919C43.2862 61.1389 44.4463 59.5822 45.2316 57.8318C46.017 56.0813 46.4084 54.1797 46.3782 52.2614C46.3782 52.1372 46.3782 52.013 46.3729 51.8874C46.3699 51.202 46.5146 50.5241 46.7971 49.8997C47.0797 49.2754 47.4935 48.7192 48.0104 48.2692C49.0645 47.2743 49.9029 46.0732 50.4732 44.7405C51.0435 43.4079 51.3336 41.9722 51.3256 40.5227ZM46.2233 46.352C45.4363 47.0579 44.8085 47.9233 44.3819 48.8906C43.9552 49.8579 43.7394 50.905 43.7489 51.9622C43.7489 52.0632 43.7489 52.1641 43.7489 52.2659C43.7666 53.7574 43.4716 55.2362 42.8831 56.6068C42.2946 57.9775 41.4256 59.2097 40.3319 60.2241V59.9772C40.3319 53.7918 38.488 47.5301 34.9641 47.5301C31.4402 47.5301 29.597 53.7918 29.597 59.9772V60.2241C28.5033 59.2098 27.6341 57.9776 27.0456 56.6069C26.4571 55.2362 26.1622 53.7575 26.1801 52.2659C26.1801 52.1641 26.1801 52.0632 26.1838 51.9622C26.1932 50.905 25.9775 49.8579 25.5508 48.8906C25.1241 47.9233 24.4964 47.0579 23.7093 46.352C22.9173 45.6029 22.288 44.6987 21.8605 43.6958C21.4329 42.693 21.2164 41.6128 21.2244 40.5227C21.2244 36.2851 24.42 32.8367 28.3478 32.8367C29.8549 32.8376 31.3179 33.3453 32.5016 34.2782C33.2069 34.8259 34.0744 35.1233 34.9675 35.1233C35.8605 35.1233 36.7281 34.8259 37.4333 34.2782C38.6157 33.3461 40.077 32.8385 41.5826 32.8367C45.5097 32.8367 48.7045 36.2851 48.7045 40.5227C48.7128 41.6125 48.4969 42.6925 48.07 43.6953C47.6432 44.6981 47.0146 45.6024 46.2233 46.352ZM0 39.5405V38.7102C0 38.363 0.137917 38.0301 0.383409 37.7846C0.628902 37.5391 0.961861 37.4012 1.30904 37.4012C1.65622 37.4012 1.98918 37.5391 2.23467 37.7846C2.48016 38.0301 2.61808 38.363 2.61808 38.7102V39.5405C2.61808 39.8877 2.48016 40.2206 2.23467 40.4661C1.98918 40.7116 1.65622 40.8495 1.30904 40.8495C0.961861 40.8495 0.628902 40.7116 0.383409 40.4661C0.137917 40.2206 0 39.8877 0 39.5405ZM10.3975 70H59.595C62.3507 69.998 64.9931 68.903 66.9423 66.9551C68.8916 65.0072 69.9886 62.3657 69.9925 59.61V19.4785C69.9895 16.7218 68.8931 14.0789 66.9439 12.1296C64.9946 10.1804 62.3517 9.08397 59.595 9.081H58.6525V6.78457C58.6525 4.98519 57.9377 3.25951 56.6653 1.98715C55.393 0.714801 53.6673 0 51.8679 0C50.0685 0 48.3429 0.714801 47.0705 1.98715C45.7981 3.25951 45.0833 4.98519 45.0833 6.78457V9.081H24.8568V6.78457C24.8568 4.98519 24.142 3.25951 22.8697 1.98715C21.5973 0.714801 19.8716 0 18.0722 0C16.2729 0 14.5472 0.714801 13.2748 1.98715C12.0025 3.25951 11.2877 4.98519 11.2877 6.78457V9.081H10.3975C7.64084 9.08397 4.99791 10.1804 3.04864 12.1296C1.09937 14.0789 0.00297003 16.7218 0 19.4785V31.5292C0 31.8764 0.137917 32.2093 0.383409 32.4548C0.628902 32.7003 0.961861 32.8382 1.30904 32.8382C1.65622 32.8382 1.98918 32.7003 2.23467 32.4548C2.48016 32.2093 2.61808 31.8764 2.61808 31.5292V26.9513H67.3744V59.61C67.3711 61.6715 66.5501 63.6475 65.0917 65.1045C63.6333 66.5615 61.6565 67.3805 59.595 67.3819H10.3975C8.336 67.3805 6.35921 66.5615 4.9008 65.1045C3.44238 63.6475 2.62145 61.6715 2.61808 59.61V46.1904C2.61808 45.8432 2.48016 45.5103 2.23467 45.2648C1.98918 45.0193 1.65622 44.8814 1.30904 44.8814C0.961861 44.8814 0.628902 45.0193 0.383409 45.2648C0.137917 45.5103 0 45.8432 0 46.1904V59.61C0.00396146 62.3657 1.10092 65.0072 3.05019 66.9551C4.99946 68.903 7.64183 69.998 10.3975 70ZM47.7014 10.39V6.78457C47.7028 5.67997 48.1422 4.62102 48.9233 3.83995C49.7044 3.05888 50.7633 2.61947 51.8679 2.61808C52.9726 2.61907 54.0318 3.05836 54.813 3.83951C55.5941 4.62066 56.0334 5.67985 56.0344 6.78457V13.9955C56.0344 15.1005 55.5954 16.1603 54.8141 16.9417C54.0327 17.723 52.9729 18.162 51.8679 18.162C50.7629 18.162 49.7031 17.723 48.9218 16.9417C48.1404 16.1603 47.7014 15.1005 47.7014 13.9955V10.39ZM13.9057 10.39V6.78457C13.9057 5.67955 14.3447 4.61978 15.1261 3.83842C15.9075 3.05705 16.9672 2.61808 18.0722 2.61808C19.1773 2.61808 20.237 3.05705 21.0184 3.83842C21.7998 4.61978 22.2387 5.67955 22.2387 6.78457V13.9955C22.2387 15.1005 21.7998 16.1603 21.0184 16.9417C20.237 17.723 19.1773 18.162 18.0722 18.162C16.9672 18.162 15.9075 17.723 15.1261 16.9417C14.3447 16.1603 13.9057 15.1005 13.9057 13.9955V10.39ZM2.61808 24.3332V19.4785C2.62065 17.4161 3.4411 15.4388 4.89947 13.9805C6.35784 12.5221 8.33507 11.7017 10.3975 11.6991H11.2877V13.9955C11.2877 15.7949 12.0025 17.5206 13.2748 18.7929C14.5472 20.0653 16.2729 20.7801 18.0722 20.7801C19.8716 20.7801 21.5973 20.0653 22.8697 18.7929C24.142 17.5206 24.8568 15.7949 24.8568 13.9955V11.6991H45.0833V13.9955C45.0833 15.7949 45.7981 17.5206 47.0705 18.7929C48.3429 20.0653 50.0685 20.7801 51.8679 20.7801C53.6673 20.7801 55.393 20.0653 56.6653 18.7929C57.9377 17.5206 58.6525 15.7949 58.6525 13.9955V11.6991H59.595C61.6574 11.7017 63.6347 12.5221 65.093 13.9805C66.5514 15.4388 67.3719 17.4161 67.3744 19.4785V24.3332H2.61808Z" fill="#27BBAE"/>
</svg>
