<svg width="50" height="52" viewBox="0 0 50 52" fill="none" xmlns="http://www.w3.org/2000/svg">
<path d="M44.3285 36.102C42.207 34.1098 38.8307 34.1098 36.6833 36.0632C35.933 36.7488 35.2215 37.4991 34.4971 38.2235C33.4234 39.2843 32.2591 39.3101 31.1078 38.3399C27.9255 35.6363 24.989 32.6998 22.2854 29.5175C21.3152 28.3791 21.341 27.2019 22.4018 26.1282C23.1004 25.4168 23.8377 24.7311 24.5104 23.9938C26.5284 21.7946 26.5284 18.4313 24.4845 16.258C23.372 15.0679 22.2207 13.9166 21.0306 12.804C18.7797 10.7084 15.3516 10.7472 13.1525 12.8946C11.2509 14.7703 9.98314 17.0471 9.38808 19.6731C9.21991 20.4105 9.12936 21.1608 9 21.9111C9 22.5191 9 23.1141 9 23.7221C9.02587 23.8644 9.05174 24.0067 9.06468 24.1361C9.28459 26.3223 9.91846 28.3791 11.1215 30.229C13.0619 33.2043 15.3258 35.9338 17.7319 38.5469C21.2764 42.4019 25.1831 45.8299 29.4391 48.8829C31.1984 50.1506 33.1388 51.0173 35.2862 51.3925C35.7777 51.483 36.2693 51.5477 36.7609 51.6253C37.4206 51.6253 38.0804 51.6253 38.7272 51.6253C39.1929 51.5606 39.6586 51.5089 40.1243 51.4183C42.9832 50.9009 45.454 49.6461 47.5625 47.641C49.8393 45.4807 50.0075 41.8974 47.8601 39.5947C46.7217 38.4046 45.5445 37.2274 44.3285 36.102ZM40.2019 49.8143C36.6445 50.4999 33.3975 49.7625 30.4481 47.6798C26.2309 44.6916 22.3759 41.2894 18.8703 37.4861C16.5159 34.9377 14.2779 32.2729 12.4151 29.3493C10.8369 26.8656 10.2936 24.1102 10.6817 21.1996C11.0439 18.4701 12.234 16.1286 14.1356 14.1494C15.7009 12.5065 18.2752 12.3772 19.931 13.9166C21.1082 15.0161 22.2595 16.1674 23.3591 17.3446C24.9243 19.0134 24.795 21.5877 23.1004 23.1917C22.9969 23.1012 22.9063 23.0106 22.8028 22.9071C21.2634 21.3807 19.737 19.8413 18.1976 18.3148C18.107 18.2243 18.0165 18.1208 17.913 18.0432C17.5637 17.7715 17.1239 17.7974 16.8393 18.0949C16.5676 18.3795 16.5547 18.8064 16.8134 19.1427C16.904 19.2592 17.0075 19.3627 17.1109 19.4532C18.6374 20.9797 20.1639 22.5061 21.6903 24.0197C21.7809 24.1102 21.8973 24.1749 22.1172 24.3301C21.7938 24.6147 21.5222 24.8088 21.3022 25.0416C19.6723 26.6845 19.6205 28.7801 21.1082 30.5395C23.8895 33.8123 26.9165 36.8264 30.1893 39.6077C31.5476 40.7719 33.2164 40.953 34.7429 40.0475C35.0533 39.8664 35.325 39.6077 35.5966 39.3619C35.8424 39.142 36.0494 38.8832 36.2305 38.6892C39.2317 41.6904 42.1941 44.6527 45.1694 47.6281C43.6946 48.7147 42.0388 49.465 40.2019 49.8143ZM46.4371 46.5026C43.4359 43.5014 40.4606 40.5261 37.4594 37.512C38.0545 36.8652 38.7789 36.4383 39.6456 36.2701C41.0427 35.9985 42.2975 36.3219 43.3195 37.305C44.4708 38.4046 45.5962 39.5171 46.6829 40.6814C48.2611 42.3501 48.1188 45.0796 46.4371 46.5026Z" fill="url(#paint0_linear_247_263)"/>
<path d="M31.0825 29.3232C31.5353 29.4525 32.0268 29.5431 32.5055 29.5431C34.7434 29.569 36.9684 29.556 39.2581 29.556C39.2581 30.2675 39.271 30.9402 39.2581 31.6129C39.2452 32.0139 39.3228 32.3761 39.7367 32.5701C40.1766 32.7642 40.487 32.5443 40.7846 32.2467C41.5866 31.4318 42.4145 30.6427 43.2036 29.8277C43.3977 29.6336 43.5917 29.556 43.8634 29.569C44.4326 29.5819 44.9888 29.5819 45.558 29.569C47.576 29.5172 49.3224 27.7838 49.3483 25.7657C49.3741 23.2561 49.3741 20.7465 49.3483 18.2369C49.3353 16.6199 48.184 15.1193 46.6188 14.6536C46.2048 14.5372 45.7779 14.4467 45.351 14.4467C41.0304 14.4337 36.7097 14.4337 32.389 14.4337C30.2546 14.4337 28.4435 16.1025 28.4047 18.1593C28.3659 20.7207 28.3659 23.282 28.4047 25.8434C28.4306 27.3957 29.5948 28.8833 31.0825 29.3232ZM29.97 18.6121C29.97 16.9692 30.9402 15.999 32.596 15.999C36.7873 15.999 40.9786 15.999 45.1699 15.999C46.8128 15.999 47.783 16.9692 47.783 18.625C47.783 20.8759 47.783 23.1138 47.783 25.3647C47.783 27.0076 46.8128 27.9778 45.157 27.9778C44.6137 27.9778 44.0833 28.0037 43.54 27.9649C43.0225 27.9261 42.6344 28.1072 42.2852 28.4953C41.8453 28.9739 41.3796 29.4267 40.8363 29.97C40.8363 29.569 40.8363 29.3102 40.8363 29.0515C40.8363 28.2495 40.5776 27.9778 39.7756 27.9778C37.3953 27.9778 35.0151 27.9778 32.6478 27.9778C30.9143 27.9778 29.957 27.0335 29.957 25.313C29.97 23.075 29.9571 20.85 29.97 18.6121Z" fill="url(#paint1_linear_247_263)"/>
<path d="M21.5735 35.7658C21.1984 35.4036 20.7456 35.3907 20.4222 35.7141C20.0988 36.0375 20.0988 36.5032 20.474 36.8654C22.0134 38.3789 23.5528 39.8795 25.1051 41.3672C25.2474 41.5095 25.4544 41.5612 25.5449 41.613C25.9977 41.613 26.2564 41.4577 26.3858 41.1602C26.541 40.8109 26.4505 40.4875 26.1788 40.2288C24.6394 38.7541 23.1129 37.2535 21.5735 35.7658Z" fill="url(#paint2_linear_247_263)"/>
<path d="M18.8865 33.1786C18.4596 33.1915 18.1233 33.5408 18.1362 33.9677C18.1492 34.3946 18.4984 34.7439 18.9124 34.7439C19.3134 34.7439 19.6886 34.3687 19.6886 33.9677C19.6886 33.5408 19.3134 33.1786 18.8865 33.1786Z" fill="url(#paint3_linear_247_263)"/>
<path d="M15.2622 15.6881C14.8483 15.6751 14.4731 16.0374 14.4602 16.4513C14.4472 16.8653 14.8094 17.2404 15.2234 17.2533C15.6374 17.2663 15.9996 16.917 16.0125 16.4901C16.0254 16.0632 15.6891 15.701 15.2622 15.6881Z" fill="url(#paint4_linear_247_263)"/>
<path d="M35.0672 22.7769C35.4811 22.7769 35.8433 22.4147 35.8433 21.9878C35.8433 21.5739 35.4811 21.2117 35.0672 21.2117C34.6532 21.2117 34.3039 21.5739 34.3039 22.0008C34.291 22.4147 34.6403 22.7769 35.0672 22.7769Z" fill="url(#paint5_linear_247_263)"/>
<path d="M38.8437 22.7773C39.2447 22.8032 39.6328 22.4409 39.6586 22.027C39.6716 21.613 39.3223 21.2379 38.9083 21.212C38.5073 21.1991 38.1192 21.5484 38.0934 21.9623C38.0804 22.3633 38.4297 22.7514 38.8437 22.7773Z" fill="url(#paint6_linear_247_263)"/>
<path d="M42.6979 22.7769C43.1119 22.7769 43.4611 22.4147 43.4611 21.9878C43.4611 21.5609 43.0989 21.2117 42.685 21.2117C42.271 21.2117 41.9218 21.5739 41.9218 22.0008C41.9218 22.4147 42.284 22.7769 42.6979 22.7769Z" fill="url(#paint7_linear_247_263)"/>
<circle cx="14" cy="14" r="14" fill="#C1FFFA" fill-opacity="0.1"/>
<defs>
<linearGradient id="paint0_linear_247_263" x1="23.4063" y1="32.3394" x2="60.1545" y2="32.3394" gradientUnits="userSpaceOnUse">
<stop stop-color="#27BBAE"/>
<stop offset="1" stop-color="#7EBE42"/>
</linearGradient>
<linearGradient id="paint1_linear_247_263" x1="35.8659" y1="23.9436" x2="54.9723" y2="23.9436" gradientUnits="userSpaceOnUse">
<stop stop-color="#27BBAE"/>
<stop offset="1" stop-color="#7EBE42"/>
</linearGradient>
<linearGradient id="paint2_linear_247_263" x1="22.425" y1="38.684" x2="28.137" y2="38.684" gradientUnits="userSpaceOnUse">
<stop stop-color="#27BBAE"/>
<stop offset="1" stop-color="#7EBE42"/>
</linearGradient>
<linearGradient id="paint3_linear_247_263" x1="18.6899" y1="33.996" x2="20.1031" y2="33.996" gradientUnits="userSpaceOnUse">
<stop stop-color="#27BBAE"/>
<stop offset="1" stop-color="#7EBE42"/>
</linearGradient>
<linearGradient id="paint4_linear_247_263" x1="15.014" y1="16.5056" x2="16.4275" y2="16.5056" gradientUnits="userSpaceOnUse">
<stop stop-color="#27BBAE"/>
<stop offset="1" stop-color="#7EBE42"/>
</linearGradient>
<linearGradient id="paint5_linear_247_263" x1="34.853" y1="22.0291" x2="36.2544" y2="22.0291" gradientUnits="userSpaceOnUse">
<stop stop-color="#27BBAE"/>
<stop offset="1" stop-color="#7EBE42"/>
</linearGradient>
<linearGradient id="paint6_linear_247_263" x1="38.6518" y1="22.03" x2="40.0771" y2="22.03" gradientUnits="userSpaceOnUse">
<stop stop-color="#27BBAE"/>
<stop offset="1" stop-color="#7EBE42"/>
</linearGradient>
<linearGradient id="paint7_linear_247_263" x1="42.471" y1="22.0291" x2="43.8721" y2="22.0291" gradientUnits="userSpaceOnUse">
<stop stop-color="#27BBAE"/>
<stop offset="1" stop-color="#7EBE42"/>
</linearGradient>
</defs>
</svg>
