<svg width="72" height="72" viewBox="0 0 72 72" fill="none" xmlns="http://www.w3.org/2000/svg">
<path d="M24.6435 54.2896C24.8044 53.9951 25.0755 53.7764 25.3974 53.6815C25.7193 53.5865 26.0657 53.6231 26.3607 53.7831C30.7796 56.1824 35.9335 56.8509 40.8182 55.6582C45.703 54.4655 49.9689 51.4971 52.7846 47.3313C55.6003 43.1655 56.7644 38.1007 56.0498 33.1237C55.3353 28.1467 52.7934 23.6139 48.9194 20.4084C45.0454 17.203 40.1168 15.5544 35.0937 15.784C30.0706 16.0136 25.3129 18.1049 21.7475 21.6503C18.1821 25.1958 16.0644 29.9416 15.8069 34.9631C15.5494 39.9845 17.1706 44.922 20.3547 48.8135C20.5676 49.0733 20.6686 49.407 20.6355 49.7412C20.6024 50.0754 20.4378 50.3828 20.1781 50.5957C19.9183 50.8087 19.5846 50.9097 19.2504 50.8766C18.9161 50.8434 18.6087 50.6789 18.3958 50.4192C14.8222 46.0499 13.003 40.5069 13.2925 34.8699C13.582 29.2329 15.9595 23.9054 19.9619 19.9252C23.9643 15.945 29.3051 13.597 34.9439 13.3386C40.5827 13.0801 46.1159 14.9298 50.4656 18.5272C54.8153 22.1246 57.6702 27.2123 58.4742 32.7992C59.2781 38.3861 57.9736 44.0722 54.8147 48.7501C51.6558 53.4279 46.8687 56.7625 41.3858 58.1043C35.9028 59.4461 30.1167 58.6992 25.1544 56.0088C25.0079 55.9296 24.8784 55.8223 24.7734 55.693C24.6683 55.5636 24.5899 55.4149 24.5424 55.2552C24.495 55.0955 24.4795 54.928 24.4968 54.7623C24.5142 54.5966 24.564 54.436 24.6435 54.2896ZM66.5873 27.8015C66.3326 26.8492 66.7161 25.3992 67.0866 23.9961C67.6366 21.9158 68.2046 19.7639 67.1807 17.9948C66.1409 16.1981 63.9736 15.6134 61.8773 15.0483C60.493 14.675 59.061 14.2886 58.3858 13.6135C57.7107 12.9384 57.325 11.5071 56.9516 10.1222C56.3865 8.0238 55.8018 5.85956 54.0058 4.81978C52.2351 3.79591 50.0831 4.36392 47.9998 4.91312C46.5967 5.28359 45.1451 5.66564 44.1942 5.41239C43.3085 5.17578 42.2796 4.14829 41.2831 3.15409C39.8041 1.67581 38.1245 0 36 0C33.8755 0 32.1967 1.67581 30.7176 3.15409C29.7212 4.14829 28.6915 5.17578 27.8065 5.41239C26.8542 5.66564 25.4033 5.28359 24.0002 4.91312C21.9184 4.3632 19.7678 3.79446 17.9978 4.81905C16.2011 5.85884 15.6171 8.02597 15.0513 10.1222C14.6786 11.5064 14.2922 12.9391 13.617 13.6135C12.9419 14.2878 11.5106 14.6742 10.1256 15.0476C8.0271 15.6127 5.86203 16.1974 4.82292 17.994C3.799 19.7632 4.36704 21.9151 4.91626 23.9954C5.28675 25.3984 5.67027 26.8492 5.41556 27.8015C5.17387 28.69 4.1485 29.7161 3.15498 30.716C1.6759 32.1979 0 33.8774 0 36.0018C0 38.1262 1.6759 39.8057 3.15498 41.2876C4.1485 42.2839 5.17604 43.3136 5.41266 44.1985C5.66738 45.1508 5.28386 46.6008 4.91337 48.0046C4.36414 50.0849 3.79538 52.2361 4.82002 54.0052C5.85914 55.8019 8.02637 56.3866 10.1227 56.9517C11.507 57.325 12.939 57.7114 13.6134 58.3865C14.2878 59.0616 14.675 60.4936 15.0484 61.8778C15.6135 63.9762 16.1982 66.1404 17.9949 67.1802C19.7642 68.2048 21.9169 67.6361 23.9973 67.0869C25.3997 66.7164 26.8491 66.3322 27.8029 66.5876C28.6886 66.8242 29.7183 67.8517 30.7147 68.8459C32.1967 70.3242 33.8755 72 35.9971 72C38.1188 72 39.8012 70.3242 41.2831 68.8459C42.2796 67.8517 43.3093 66.8242 44.1942 66.5876C45.1458 66.3329 46.5981 66.7164 47.9998 67.0869C50.0809 67.6375 52.2315 68.2055 54.0014 67.1809C55.7982 66.1412 56.3829 63.974 56.948 61.8778C57.3214 60.4936 57.7078 59.0616 58.383 58.3865C59.0581 57.7114 60.4894 57.3258 61.8744 56.9524C63.9729 56.3873 66.1372 55.8026 67.1771 54.0067C67.9933 52.5972 67.7632 50.891 67.4716 49.5625C67.3942 49.2401 67.1934 48.961 66.9124 48.785C66.6315 48.6091 66.2927 48.5503 65.9689 48.6214C65.6451 48.6924 65.362 48.8876 65.1805 49.165C64.9991 49.4425 64.9336 49.78 64.9983 50.1051C65.2877 51.4141 65.2812 52.226 64.9852 52.7375C64.4693 53.629 62.8144 54.0762 61.2152 54.5067C59.5089 54.9669 57.7454 55.4423 56.592 56.5957C55.4386 57.7491 54.9624 59.5124 54.5029 61.2186C54.0687 62.8185 53.6252 64.4748 52.7337 64.9892C51.8653 65.4899 50.2307 65.0558 48.6467 64.6383C46.9245 64.1832 45.1429 63.7143 43.5401 64.1412C42.0002 64.5522 40.726 65.8235 39.4944 67.0529C38.304 68.2403 37.0738 69.4675 35.9971 69.4675C34.9204 69.4675 33.6902 68.2374 32.5006 67.0529C31.2704 65.8228 29.9947 64.5522 28.4541 64.1412C26.8535 63.7135 25.0705 64.1824 23.3475 64.6383C21.7635 65.0558 20.1245 65.4878 19.2605 64.9885C18.3683 64.4726 17.9219 62.8177 17.4906 61.2186C17.0311 59.5124 16.5557 57.7491 15.4022 56.5957C14.2488 55.4423 12.4846 54.9662 10.779 54.5067C9.1791 54.0725 7.52273 53.629 7.00897 52.7375C6.50822 51.8692 6.94094 50.2347 7.3592 48.6507C7.81435 46.9286 8.28543 45.1472 7.85632 43.5444C7.44458 42.0046 6.17391 40.7304 4.94448 39.4989C3.76064 38.305 2.53266 37.0749 2.53266 35.9982C2.53266 34.9215 3.76281 33.6914 4.94738 32.5011C6.17753 31.271 7.44748 29.9954 7.85922 28.4556C8.28832 26.8528 7.81725 25.0714 7.36209 23.3485C6.94384 21.7646 6.51184 20.1271 7.01186 19.2625C7.5278 18.371 9.18271 17.9238 10.7819 17.4933C12.4882 17.0331 14.2553 16.5577 15.4051 15.4043C16.5549 14.2509 17.0347 12.4876 17.4942 10.7814C17.9284 9.18153 18.3719 7.52525 19.2634 7.01078C20.1267 6.51006 21.7657 6.94349 23.3504 7.36172C25.0734 7.81758 26.8556 8.28718 28.457 7.85882C29.9976 7.44783 31.2712 6.17649 32.5035 4.94713C33.6931 3.75973 34.9233 2.53254 36 2.53254C37.0767 2.53254 38.3069 3.76262 39.4972 4.94713C40.7274 6.17722 42.0031 7.44783 43.543 7.85882C45.1458 8.28718 46.9274 7.81758 48.6488 7.36172C50.2336 6.94421 51.8711 6.51079 52.7366 7.01151C53.6281 7.52742 54.0753 9.18225 54.5058 10.7814C54.966 12.4876 55.4414 14.2546 56.5949 15.4043C57.7483 16.5541 59.5118 17.0338 61.2181 17.4933C62.818 17.9275 64.4744 18.371 64.9889 19.2625C65.4889 20.1308 65.0562 21.7653 64.6379 23.3493C64.1828 25.0714 63.7124 26.8528 64.1408 28.4556C64.5518 29.9954 65.8232 31.2696 67.0526 32.5011C68.2401 33.6914 69.4673 34.9215 69.4673 35.9982C69.4673 36.334 69.6008 36.6561 69.8382 36.8936C70.0757 37.131 70.3978 37.2645 70.7337 37.2645C71.0695 37.2645 71.3916 37.131 71.6291 36.8936C71.8666 36.6561 72 36.334 72 35.9982C72 33.8738 70.3241 32.1943 68.8457 30.716C67.8515 29.7161 66.8261 28.69 66.5873 27.8015ZM65.5822 41.043C65.4209 41.2311 65.2682 41.4214 65.1271 41.6125C64.9269 41.8822 64.8421 42.2204 64.8913 42.5526C64.9405 42.8849 65.1197 43.184 65.3894 43.3841C65.6591 43.5843 65.9973 43.6691 66.3296 43.6199C66.6619 43.5707 66.961 43.3916 67.1612 43.1219C67.2683 42.9771 67.384 42.8324 67.5071 42.6877C67.7254 42.4325 67.8333 42.101 67.8072 41.7661C67.7811 41.4313 67.623 41.1206 67.3678 40.9023C67.2414 40.7942 67.0949 40.712 66.9368 40.6605C66.7787 40.609 66.6119 40.5892 66.4461 40.6021C66.1113 40.6283 65.8005 40.7863 65.5822 41.0416V41.043ZM30.8225 45.001L23.1645 37.3455C22.3939 36.5632 21.9638 35.508 21.9679 34.41C21.9721 33.3119 22.4102 32.26 23.1868 31.4836C23.9633 30.7072 25.0153 30.2693 26.1134 30.2652C27.2115 30.2612 28.2667 30.6914 29.0489 31.4621L33.7647 36.1776L42.9511 26.9932C43.3364 26.6021 43.7953 26.2912 44.3014 26.0783C44.8074 25.8654 45.3506 25.7547 45.8997 25.7527C46.4487 25.7507 46.9927 25.8573 47.5003 26.0665C48.0079 26.2757 48.4691 26.5832 48.8573 26.9715C49.2455 27.3597 49.553 27.8209 49.7621 28.3285C49.9713 28.8361 50.0778 29.3801 50.0757 29.9291C50.0737 30.4781 49.9629 31.0213 49.75 31.5273C49.537 32.0333 49.226 32.4921 48.8348 32.8774L36.707 45.0032C36.3207 45.3897 35.862 45.6964 35.3572 45.9056C34.8524 46.1148 34.3112 46.2225 33.7647 46.2225C33.2183 46.2225 32.6771 46.1148 32.1723 45.9056C31.6675 45.6964 31.2088 45.3897 30.8225 45.0032V45.001ZM24.9554 35.5554L32.6135 43.213C32.9238 43.5088 33.336 43.6738 33.7647 43.6738C34.1934 43.6738 34.6057 43.5088 34.916 43.213L47.0446 31.0858C47.1958 30.9347 47.3157 30.7553 47.3975 30.5578C47.4793 30.3603 47.5214 30.1487 47.5214 29.9349C47.5214 29.7212 47.4793 29.5095 47.3975 29.3121C47.3157 29.1146 47.1958 28.9352 47.0446 28.7841C46.7348 28.4875 46.3225 28.322 45.8937 28.322C45.4648 28.322 45.0525 28.4875 44.7428 28.7841L34.6599 38.8636C34.5424 38.9812 34.4029 39.0746 34.2493 39.1383C34.0957 39.202 33.931 39.2347 33.7647 39.2347C33.5985 39.2347 33.4338 39.202 33.2802 39.1383C33.1266 39.0746 32.9871 38.9812 32.8696 38.8636L27.258 33.2529C26.9526 32.9476 26.5385 32.7761 26.1067 32.7761C25.6749 32.7761 25.2608 32.9476 24.9554 33.2529C24.6501 33.5582 24.4785 33.9724 24.4785 34.4041C24.4785 34.8359 24.6501 35.25 24.9554 35.5554Z" fill="#27BBAE"/>
</svg>
