<svg width="334" height="45" viewBox="0 0 334 45" fill="none" xmlns="http://www.w3.org/2000/svg">
<path fill-rule="evenodd" clip-rule="evenodd" d="M111.984 42.1615C113.357 43.5338 115.523 44.22 118.482 44.22C119.682 44.22 120.712 44.1342 121.569 43.9627C122.427 43.834 123.306 43.5981 124.207 43.2551V37.2726C123.306 37.5728 122.298 37.7229 121.183 37.7229C120.326 37.7229 119.682 37.5299 119.254 37.1439C118.868 36.7151 118.675 35.9646 118.675 34.8925V0.219971H109.99V35.6001C109.99 38.602 110.655 40.7892 111.984 42.1615ZM21.8099 9.35447L0.967834 39.0738V43.5767H33.4532V36.8866H14.9104V35.4503H13.4892L33.1316 7.42465V2.14979H1.99707V9.35447H21.8099ZM42.7229 40.2317C45.7677 42.8905 49.9919 44.22 55.3954 44.22C59.9841 44.22 63.6937 43.5767 66.5241 42.2901V36.1147C65.3233 36.5864 63.8652 36.9724 62.1498 37.2726C60.4773 37.5728 58.8262 37.7229 57.1966 37.7229C53.8087 37.7229 51.2356 37.2512 49.4773 36.3077C47.7619 35.3642 46.6898 33.7132 46.2609 31.3545H68.3252V25.8223C68.3252 21.7482 67.0387 18.5104 64.4656 16.1089C61.9354 13.6644 58.3545 12.4422 53.7229 12.4422C48.6625 12.4422 44.8028 13.836 42.144 16.6235C39.528 19.411 38.22 23.2921 38.22 28.2668C38.22 33.5416 39.721 37.5299 42.7229 40.2317ZM60.7346 24.3428V26.0153H46.2609C46.2609 23.3993 46.8399 21.5338 47.9978 20.4188C49.1556 19.2609 51.1498 18.682 53.9802 18.682C58.4831 18.682 60.7346 20.5689 60.7346 24.3428ZM83.9563 44.22C80.8686 44.22 78.274 43.4052 76.1727 41.7755C74.1142 40.103 73.085 37.7658 73.085 34.7638C73.085 31.719 74.1571 29.3174 76.3013 27.5591C78.4885 25.758 81.6191 24.8574 85.6932 24.8574H94.699V24.0211C94.699 22.7346 94.4631 21.7268 93.9914 20.9977C93.5625 20.2687 92.7692 19.7326 91.6113 19.3896C90.4963 19.0465 88.8881 18.8749 86.7867 18.8749C83.313 18.8749 79.968 19.411 76.7516 20.4831V14.372C78.2526 13.7716 80.0109 13.2999 82.0265 12.9568C84.085 12.6137 86.2721 12.4422 88.5879 12.4422C98.1941 12.4422 102.997 16.3662 102.997 24.2141V43.5767H95.4709L95.0206 40.8106C92.5333 43.0835 88.8452 44.22 83.9563 44.22ZM86.3364 38.4948C88.1805 38.4948 89.8101 38.1946 91.2253 37.5942C92.6834 36.951 93.8413 36.1147 94.699 35.0855V30.2609H85.8861C82.4982 30.2609 80.8043 31.6547 80.8043 34.4422C80.8043 37.1439 82.6483 38.4948 86.3364 38.4948Z" fill="#27BBAF"/>
<path fill-rule="evenodd" clip-rule="evenodd" d="M23.0934 23.5522L23.8738 23.169C24.6066 22.8094 25.4625 22.4579 26.2532 22.2417C30.4797 21.0899 35.0772 22.21 35.2558 27.4589C35.3115 29.1313 35.1504 30.839 34.8605 32.4797C34.328 35.4726 32.8307 40.7617 29.931 42.3246C29.3728 42.6246 28.7571 42.7757 28.1278 42.7336C27.1607 42.6938 26.2252 42.2034 25.4964 40.9123C24.6247 39.3671 23.8995 39.6692 23.0319 40.4853C22.0009 41.4543 21.8087 41.8356 20.3331 42.5707C19.5604 42.9562 18.7977 43.1466 18.1065 42.9896C17.0755 42.7553 16.3151 42.0682 15.779 41.1964C15.219 40.2849 14.7644 39.0377 14.4088 38.0366C13.8764 36.537 13.4199 34.9999 13.0422 33.4609C12.4519 31.0633 11.5363 26.7278 12.8033 24.5035C14.8015 20.9922 19.7685 21.711 23.0934 23.5522ZM29.3592 27.8103C29.3592 27.8103 25.989 28.0745 23.4426 26.0049C20.8967 23.9353 15.993 22.7519 14.4658 25.4368C12.9363 28.122 16.1658 38.2529 17.399 40.2587C18.6321 42.2645 20.4556 40.4256 23.0812 37.9548C25.7086 35.4839 27.0137 41.7343 28.9919 40.6875C30.9678 39.6407 33.5301 32.5367 33.3572 27.4824C33.1863 22.4299 27.713 23.7865 26.7974 24.0367C25.88 24.2868 24.7518 24.8369 24.7518 24.8369C25.0834 25.4766 27.4231 27.0635 29.3592 27.8099V27.8103Z" fill="#27BBAF"/>
<path fill-rule="evenodd" clip-rule="evenodd" d="M21.6396 39.3015C22.0924 38.8925 22.571 38.4357 23.0813 37.9548C25.7087 35.4839 27.0138 41.7343 28.992 40.6876C30.9679 39.6408 33.5302 32.5367 33.3574 27.4824C33.1864 22.4299 27.7131 23.7865 26.7975 24.0367C25.8801 24.2869 24.7519 24.8369 24.7519 24.8369C25.0835 25.4766 27.4232 27.0635 29.3593 27.8099C29.3593 27.8099 25.9892 28.0741 23.4428 26.0045C22.8411 25.516 22.1083 25.0772 21.3175 24.7257C18.7675 23.5916 15.6317 23.3871 14.4655 25.4368C12.936 28.1221 16.1655 38.2529 17.3986 40.2587C18.3916 41.8755 19.7682 40.9956 21.6387 39.3015H21.6396Z" fill="white"/>
<path fill-rule="evenodd" clip-rule="evenodd" d="M18.5431 38.4949C17.856 35.9806 15.8022 30.4097 16.3347 27.1965C16.8648 23.9833 21.3175 24.7256 21.3175 24.7256C18.7675 23.5915 15.6317 23.3871 14.4655 25.4368C12.936 28.122 16.1655 38.2529 17.3986 40.2587C18.3916 41.8755 19.7682 40.9956 21.6387 39.3015C21.6387 39.3015 19.2298 41.0096 18.5427 38.4953L18.5431 38.4949Z" fill="#CCCCCC"/>
<path d="M37.6855 20.5176C37.1447 20.3628 36.6217 20.3111 36.1248 20.3081C36.1248 20.3081 36.1248 20.3081 36.1076 20.311C35.559 20.3169 35.0718 19.9582 34.8881 19.4056C34.8881 19.4056 34.8881 19.4056 34.8852 19.3885C34.7104 18.8875 34.5011 18.3925 34.1684 17.901C34.016 18.4582 33.9842 18.9947 33.9898 19.5425C33.9898 19.5425 33.9898 19.5425 33.9927 19.5596C34.0013 20.1246 33.6619 20.6255 33.1459 20.8204C33.1459 20.8204 33.1459 20.8204 33.1286 20.8234C32.6441 20.9952 32.1683 21.2187 31.7276 21.5423C32.2684 21.6971 32.7914 21.7487 33.2883 21.7518C33.2883 21.7518 33.2883 21.7518 33.3055 21.7488C33.8541 21.743 34.3413 22.1017 34.525 22.6542C34.525 22.6542 34.525 22.6542 34.5279 22.6714C34.7027 23.1724 34.912 23.6674 35.2447 24.1589C35.3971 23.6017 35.4289 23.0652 35.4233 22.5174C35.4233 22.5174 35.4233 22.5174 35.4204 22.5002C35.4118 21.9353 35.7512 21.4344 36.2672 21.2394C36.2672 21.2394 36.2672 21.2394 36.2845 21.2365C36.7518 21.0676 37.2305 20.8613 37.6855 20.5176Z" fill="#F8971D"/>
<path d="M32.6582 19.9721C32.4486 19.8675 32.2389 19.8151 32.0118 19.7628C31.7846 19.7279 31.6099 19.536 31.575 19.2918C31.54 19.065 31.4876 18.8382 31.3828 18.6289C31.2779 18.8557 31.2255 19.0825 31.1906 19.2918C31.1556 19.536 30.9809 19.7105 30.7538 19.7628C30.5441 19.7977 30.3344 19.85 30.1073 19.9721C30.317 20.0768 30.5266 20.1291 30.7538 20.1815C30.9809 20.2164 31.1556 20.4082 31.1906 20.6525C31.2255 20.8792 31.2779 21.106 31.3828 21.3154C31.4876 21.0886 31.54 20.8618 31.575 20.6525C31.6099 20.4082 31.7846 20.2338 32.0118 20.1815C32.2214 20.1466 32.4311 20.0768 32.6582 19.9721Z" fill="#F8971D"/>
<path d="M33.3558 18.8521C33.2684 18.8172 33.1985 18.7823 33.1112 18.7823C33.0238 18.7649 32.9539 18.6951 32.9365 18.6079C32.919 18.5206 32.9015 18.4334 32.8666 18.3462C32.8316 18.4334 32.8142 18.5206 32.7967 18.6079C32.7792 18.6951 32.7093 18.7649 32.622 18.7823C32.5346 18.7997 32.4647 18.8172 32.3773 18.8521C32.4647 18.887 32.5346 18.9219 32.622 18.9219C32.7093 18.9393 32.7792 19.0091 32.7967 19.0963C32.8142 19.1835 32.8316 19.2707 32.8666 19.358C32.9015 19.2707 32.919 19.1835 32.9365 19.0963C32.9539 19.0091 33.0238 18.9393 33.1112 18.9219C33.1811 18.9219 33.2684 18.9044 33.3558 18.8521Z" fill="#F8971D"/>
<path d="M30.4984 19.094C30.2887 18.9893 30.079 18.937 29.8519 18.8846C29.6247 18.8497 29.45 18.6578 29.4151 18.4136C29.3801 18.1868 29.3277 17.9601 29.2229 17.7507C29.1181 17.9775 29.0656 18.2043 29.0307 18.4136C28.9958 18.6578 28.821 18.8323 28.5939 18.8846C28.3842 18.9195 28.1746 18.9718 27.9474 19.094C28.1571 19.1986 28.3668 19.251 28.5939 19.3033C28.821 19.3382 28.9958 19.5301 29.0307 19.7743C29.0656 20.0011 29.1181 20.2278 29.2229 20.4372C29.3277 20.2104 29.3801 19.9836 29.4151 19.7743C29.45 19.5301 29.6247 19.3556 29.8519 19.3033C30.079 19.2684 30.2887 19.2161 30.4984 19.094Z" fill="#F8971D"/>
<path d="M205.045 44.22C199.641 44.22 195.417 42.8905 192.372 40.2317C189.37 37.5299 187.869 33.5416 187.869 28.2668C187.869 23.2921 189.177 19.411 191.793 16.6235C194.452 13.836 198.312 12.4422 203.372 12.4422C208.004 12.4422 211.585 13.6644 214.115 16.1089C216.688 18.5104 217.974 21.7482 217.974 25.8223V31.3545H195.91C196.339 33.7132 197.411 35.3642 199.126 36.3077C200.885 37.2512 203.458 37.7229 206.846 37.7229C208.475 37.7229 210.126 37.5728 211.799 37.2726C213.514 36.9724 214.972 36.5864 216.173 36.1147V42.2901C213.343 43.5767 209.633 44.22 205.045 44.22ZM210.384 26.0153V24.3428C210.384 20.5689 208.132 18.682 203.629 18.682C200.799 18.682 198.805 19.2609 197.647 20.4188C196.489 21.5338 195.91 23.3993 195.91 26.0153H210.384Z" fill="#7EBE43"/>
<path d="M224.021 13.0855H232.062L232.383 15.9802C233.756 14.951 235.385 14.1147 237.272 13.4714C239.159 12.7853 241.11 12.4422 243.126 12.4422C247.114 12.4422 250.03 13.3857 251.874 15.2726C253.761 17.1167 254.705 20.0328 254.705 24.0211V43.5767H246.021V24.4714C246.021 22.3701 245.592 20.912 244.734 20.0972C243.876 19.2395 242.333 18.8106 240.103 18.8106C238.773 18.8106 237.444 19.1108 236.114 19.7112C234.785 20.2687 233.648 21.0192 232.705 21.9627V43.5767H224.021V13.0855Z" fill="#7EBE43"/>
<path d="M273.869 44.22C270.395 44.22 267.801 43.3194 266.085 41.5182C264.37 39.717 263.512 37.1868 263.512 33.9276V19.7755H259.202V13.0855H263.512V6.52406L272.196 3.95096V13.0855H279.916L279.401 19.7755H272.196V33.3486C272.196 34.9783 272.561 36.1147 273.29 36.758C274.062 37.4013 275.284 37.7229 276.957 37.7229C278.157 37.7229 279.401 37.5085 280.688 37.0796V43.0621C278.758 43.834 276.485 44.22 273.869 44.22Z" fill="#7EBE43"/>
<path d="M292.782 44.22C289.694 44.22 287.099 43.4052 284.998 41.7755C282.94 40.103 281.91 37.7658 281.91 34.7638C281.91 31.719 282.983 29.3174 285.127 27.5591C287.314 25.758 290.444 24.8574 294.519 24.8574H303.524V24.0211C303.524 22.7346 303.289 21.7268 302.817 20.9977C302.388 20.2687 301.595 19.7326 300.437 19.3896C299.322 19.0465 297.714 18.8749 295.612 18.8749C292.138 18.8749 288.793 19.411 285.577 20.4831V14.372C287.078 13.7716 288.836 13.2999 290.852 12.9568C292.91 12.6137 295.098 12.4422 297.413 12.4422C307.02 12.4422 311.823 16.3662 311.823 24.2141V43.5767H304.296L303.846 40.8106C301.359 43.0835 297.671 44.22 292.782 44.22ZM295.162 38.4948C297.006 38.4948 298.636 38.1946 300.051 37.5942C301.509 36.951 302.667 36.1147 303.524 35.0855V30.2609H294.712C291.324 30.2609 289.63 31.6547 289.63 34.4422C289.63 37.1439 291.474 38.4948 295.162 38.4948Z" fill="#7EBE43"/>
<path d="M327.307 44.22C324.348 44.22 322.182 43.5338 320.81 42.1615C319.48 40.7892 318.816 38.602 318.816 35.6001V0.219971H327.5V34.8925C327.5 35.9646 327.693 36.7151 328.079 37.1439C328.508 37.5299 329.151 37.7229 330.009 37.7229C331.124 37.7229 332.132 37.5728 333.032 37.2726V43.2551C332.132 43.5981 331.252 43.834 330.395 43.9627C329.537 44.1342 328.508 44.22 327.307 44.22Z" fill="#7EBE43"/>
<path fill-rule="evenodd" clip-rule="evenodd" d="M142.891 44.22H159.541C175.314 44.22 184.515 34.8311 184.515 22.1884V22.0626C184.515 9.42039 175.44 0.405762 159.792 0.405762H142.891V12.0036C144.43 11.645 146.216 11.434 147.921 11.7257C152.215 12.4545 154.722 15.1833 154.722 15.1833L142.891 16.9793V44.22H142.891Z" fill="#7EBE43"/>
<path fill-rule="evenodd" clip-rule="evenodd" d="M155.034 33.4543V11.1716H159.981C167.239 11.1716 172.06 15.2415 172.06 22.2516V22.3774C172.06 29.4499 167.239 33.4548 159.981 33.4548H155.034V33.4543Z" fill="#7EBE43"/>
<path fill-rule="evenodd" clip-rule="evenodd" d="M154.722 17.8696V10.1711H162.608C166.239 10.1711 168.116 11.5482 168.116 13.925V14.0508C168.116 16.6183 166.05 17.8696 162.357 17.8696H154.722Z" fill="#7EBE43"/>
<path fill-rule="evenodd" clip-rule="evenodd" d="M154.722 34.4566V26.3818H163.985C168.053 26.3818 169.932 27.9471 169.932 30.3264V30.4497C169.932 33.0171 167.804 34.4566 164.111 34.4566H154.722Z" fill="#7EBE43"/>
<path fill-rule="evenodd" clip-rule="evenodd" d="M154.955 15.3066L156.077 14.7146C157.131 14.1608 158.36 13.616 159.499 13.2706C165.578 11.4249 172.206 12.9095 172.496 20.6145C172.588 23.0699 172.368 25.5862 171.958 28.0055C171.211 32.4233 169.085 40.2445 164.919 42.6441C164.114 43.1062 163.23 43.3481 162.322 43.3101C160.927 43.2878 159.579 42.5995 158.521 40.7269C157.254 38.489 156.214 38.9597 154.967 40.1887C153.487 41.6485 153.213 42.216 151.092 43.3481C149.982 43.9426 148.883 44.2494 147.887 44.0435C146.403 43.7361 145.302 42.7542 144.523 41.4917C143.712 40.173 143.048 38.3567 142.53 36.8969C141.757 34.7149 141.088 32.4705 140.534 30.2236C139.671 26.7233 138.328 20.3837 140.137 17.0716C142.996 11.8423 150.154 12.7213 154.955 15.3071L154.955 15.3066ZM164.005 21.3388C164.005 21.3388 159.153 21.8501 155.473 18.8991C151.791 15.9502 144.723 14.385 142.537 18.3833C140.353 22.3816 145.064 37.152 146.853 40.0563C148.643 42.9601 151.258 40.1933 155.025 36.4683C158.792 32.7459 160.711 41.8813 163.552 40.2739C166.393 38.6661 170.042 28.1359 169.762 20.718C169.484 13.298 161.61 15.4866 160.292 15.8878C158.971 16.287 157.35 17.1371 157.35 17.1371C157.833 18.0632 161.212 20.3147 164.006 21.3393L164.005 21.3388Z" fill="#7EBE43"/>
<path fill-rule="evenodd" clip-rule="evenodd" d="M148.49 37.4233C147.485 33.7547 144.494 25.6419 145.239 20.9015C145.983 16.1611 152.403 17.0959 152.403 17.0959C148.723 15.5195 144.205 15.3288 142.536 18.3832C140.352 22.3816 145.064 37.152 146.853 40.0563C148.292 42.3975 150.271 41.0539 152.955 38.4976C152.955 38.4976 149.492 41.092 148.49 37.4233Z" fill="#CCCCCC"/>
<path fill-rule="evenodd" clip-rule="evenodd" d="M152.955 38.4975C153.603 37.8808 154.292 37.1925 155.025 36.4682C158.792 32.7458 160.712 41.8811 163.553 40.2738C166.394 38.6659 170.043 28.1357 169.762 20.7178C169.484 13.2978 161.611 15.4865 160.293 15.8877C158.972 16.2868 157.351 17.1369 157.351 17.1369C157.833 18.0631 161.212 20.3146 164.006 21.3391C164.006 21.3391 159.154 21.8504 155.474 18.8995C154.604 18.2021 153.543 17.5833 152.404 17.0963C148.725 15.5199 144.206 15.3292 142.538 18.3836C140.354 22.382 145.065 37.1524 146.855 40.0567C148.297 42.398 150.272 41.0544 152.956 38.498L152.955 38.4975Z" fill="white"/>
<path fill-rule="evenodd" clip-rule="evenodd" d="M148.49 37.4233C147.485 33.7547 144.494 25.6419 145.239 20.9015C145.983 16.1611 152.403 17.0959 152.403 17.0959C148.723 15.5195 144.205 15.3288 142.536 18.3832C140.352 22.3816 145.064 37.152 146.853 40.0563C148.292 42.3975 150.271 41.0539 152.955 38.4976C152.955 38.4976 149.492 41.092 148.49 37.4233Z" fill="#CCCCCC"/>
<path d="M141.217 14.056C140.511 13.7159 139.805 13.5215 139.124 13.4C139.124 13.4 139.124 13.4 139.1 13.4C138.345 13.2785 137.761 12.671 137.639 11.8692C137.639 11.8692 137.639 11.8692 137.639 11.8449C137.518 11.116 137.347 10.387 137.007 9.63379C136.666 10.3627 136.496 11.0917 136.374 11.8449C136.374 11.8449 136.374 11.8449 136.374 11.8692C136.252 12.6467 135.668 13.2542 134.914 13.4C134.914 13.4 134.914 13.4 134.889 13.4C134.184 13.5215 133.478 13.7159 132.797 14.056C133.502 14.3962 134.208 14.5906 134.889 14.7121C134.889 14.7121 134.889 14.7121 134.914 14.7121C135.668 14.8336 136.252 15.441 136.374 16.2428C136.374 16.2428 136.374 16.2428 136.374 16.2671C136.496 16.9961 136.666 17.725 137.007 18.4783C137.347 17.7493 137.518 17.0204 137.639 16.2671C137.639 16.2671 137.639 16.2671 137.639 16.2428C137.761 15.4653 138.345 14.8579 139.1 14.7121C139.1 14.7121 139.1 14.7121 139.124 14.7121C139.805 14.5906 140.511 14.4205 141.217 14.056Z" fill="#F8971D"/>
<path d="M141.497 11.0589C141.205 10.9131 140.912 10.8403 140.596 10.7674C140.28 10.7188 140.036 10.4515 139.988 10.1113C139.939 9.79544 139.866 9.47956 139.72 9.18799C139.574 9.50386 139.501 9.81974 139.452 10.1113C139.404 10.4515 139.16 10.6945 138.844 10.7674C138.552 10.816 138.26 10.8888 137.943 11.0589C138.235 11.2047 138.528 11.2776 138.844 11.3505C139.16 11.3991 139.404 11.6664 139.452 12.0066C139.501 12.3224 139.574 12.6383 139.72 12.9299C139.866 12.614 139.939 12.2981 139.988 12.0066C140.036 11.6664 140.28 11.4234 140.596 11.3505C140.888 11.3019 141.18 11.2047 141.497 11.0589Z" fill="#F8971D"/>
<path d="M142.176 12.7618C142.054 12.7132 141.957 12.6646 141.835 12.6646C141.713 12.6403 141.616 12.5431 141.592 12.4216C141.567 12.3001 141.543 12.1786 141.494 12.0571C141.446 12.1786 141.421 12.3001 141.397 12.4216C141.373 12.5431 141.275 12.6403 141.154 12.6646C141.032 12.6889 140.935 12.7132 140.813 12.7618C140.935 12.8104 141.032 12.859 141.154 12.859C141.275 12.8833 141.373 12.9805 141.397 13.1019C141.421 13.2234 141.446 13.3449 141.494 13.4664C141.543 13.3449 141.567 13.2234 141.592 13.1019C141.616 12.9805 141.713 12.8833 141.835 12.859C141.932 12.859 142.054 12.8347 142.176 12.7618Z" fill="#F8971D"/>
<path d="M135.988 17.1485C135.696 17.0027 135.404 16.9299 135.087 16.857C134.771 16.8084 134.527 16.5411 134.479 16.2009C134.43 15.885 134.357 15.5692 134.211 15.2776C134.065 15.5935 133.992 15.9093 133.943 16.2009C133.895 16.5411 133.651 16.7841 133.335 16.857C133.043 16.9056 132.751 16.9784 132.435 17.1485C132.727 17.2943 133.019 17.3672 133.335 17.4401C133.651 17.4887 133.895 17.756 133.943 18.0962C133.992 18.412 134.065 18.7279 134.211 19.0195C134.357 18.7036 134.43 18.3877 134.479 18.0962C134.527 17.756 134.771 17.513 135.087 17.4401C135.404 17.3915 135.696 17.3186 135.988 17.1485Z" fill="#F8971D"/>
</svg>
